<?xml version="1.0" standalone="no"?>
<!DOCTYPE svg PUBLIC "-//W3C//DTD SVG 20010904//EN"
 "http://www.w3.org/TR/2001/REC-SVG-20010904/DTD/svg10.dtd">
<svg version="1.0" xmlns="http://www.w3.org/2000/svg"
 width="601.000000pt" height="601.000000pt" viewBox="0 0 601.000000 601.000000"
 preserveAspectRatio="xMidYMid meet">
<metadata>
Created by potrace 1.11, written by Peter Selinger 2001-2013
</metadata>
<g transform="translate(0.000000,601.000000) scale(0.100000,-0.100000)"
fill="#000000" stroke="none">
<path d="M1368 5953 c-5 -184 1 -284 23 -393 l24 -115 95 -16 c52 -9 189 -31
303 -49 226 -36 246 -44 272 -106 7 -18 17 -76 21 -127 l7 -94 -35 -21 c-57
-36 -137 -128 -168 -194 -34 -72 -54 -184 -45 -245 3 -25 2 -44 -5 -48 -30
-19 5 -127 71 -218 27 -37 49 -69 49 -72 0 -2 -18 -42 -40 -89 -22 -47 -40
-87 -40 -90 0 -2 -15 -37 -33 -78 -18 -40 -53 -118 -76 -173 -84 -194 -78
-184 -108 -185 -15 0 -51 -3 -80 -6 -46 -5 -52 -9 -57 -32 -15 -72 3 -220 28
-234 14 -8 13 -15 -8 -56 -13 -26 -75 -164 -139 -307 -63 -143 -185 -415 -272
-605 -86 -190 -185 -412 -220 -495 -92 -220 -198 -461 -276 -623 l-68 -142
284 0 283 0 25 53 c14 28 63 142 108 252 78 193 151 368 169 410 4 11 24 61
43 110 20 50 68 169 108 265 39 96 95 234 124 305 78 190 85 208 95 230 31 67
90 214 90 223 0 22 19 21 86 -8 76 -32 219 -51 289 -38 22 4 63 7 92 7 29 1
65 7 80 13 71 31 162 93 204 140 l46 50 292 2 c257 2 293 1 301 -13 7 -12 9
-12 10 -2 0 11 3 11 15 1 8 -7 13 -16 10 -20 -2 -4 11 -22 30 -40 19 -19 35
-30 35 -25 0 5 7 0 15 -11 8 -10 15 -15 15 -11 0 5 19 -2 43 -16 130 -77 308
-94 447 -43 41 15 82 30 91 33 12 3 21 -7 32 -39 8 -23 77 -182 152 -353 76
-170 187 -425 247 -565 60 -140 120 -277 133 -305 31 -68 81 -183 153 -350 33
-77 72 -166 86 -197 l26 -58 315 0 c173 0 315 2 315 3 0 2 -62 132 -138 288
-77 156 -190 390 -252 519 -62 129 -179 370 -260 535 -81 165 -170 350 -199
410 -29 61 -92 191 -140 290 -67 136 -85 182 -76 190 23 18 35 77 35 166 l0
89 -65 0 c-36 0 -65 4 -65 8 0 4 -13 13 -29 19 -25 9 -43 39 -128 210 -54 110
-118 241 -141 291 l-44 92 51 67 c67 90 119 223 86 223 -12 0 -15 14 -16 68 0
37 -2 74 -4 82 -2 8 -6 26 -9 40 -22 104 -40 134 -139 233 -54 53 -103 97
-110 97 -12 0 -13 32 -6 170 4 71 22 103 62 106 12 1 29 4 37 7 8 3 53 11 100
17 188 25 425 63 432 69 4 3 10 24 13 46 4 22 13 69 22 105 19 83 19 82 28
103 8 19 2 159 -11 250 l-7 47 -446 1 c-245 0 -471 2 -501 4 -30 2 -498 6
-1040 10 -542 3 -1022 8 -1067 11 l-83 6 -2 -59z m200 27 c23 0 42 -4 42 -10
0 -6 -43 -10 -110 -10 -95 0 -110 2 -110 16 0 15 9 16 68 11 37 -4 86 -7 110
-7z m289 -12 c-3 -10 -32 -12 -113 -10 -154 5 -158 22 -5 22 94 0 122 -3 118
-12z m240 -3 c0 -13 -17 -15 -110 -13 -77 2 -112 7 -115 16 -3 9 24 12 111 12
95 0 114 -2 114 -15z m485 0 c-1 -6 -88 -10 -234 -10 -182 0 -232 3 -236 13
-3 11 41 13 234 10 153 -2 238 -7 236 -13z m248 -5 c0 -6 -45 -10 -115 -10
-70 0 -115 4 -115 10 0 6 45 10 115 10 70 0 115 -4 115 -10z m240 -6 c0 -14
-15 -15 -112 -12 -77 2 -113 7 -116 16 -3 9 24 12 112 12 100 0 116 -2 116
-16z m240 1 c0 -14 -17 -16 -109 -14 -83 1 -111 5 -115 15 -4 11 16 14 109 14
97 0 115 -2 115 -15z m235 0 c0 -6 -44 -11 -106 -13 -89 -2 -108 0 -113 13 -5
14 8 15 107 13 66 -2 112 -7 112 -13z m235 0 c0 -12 -19 -15 -110 -15 -91 0
-110 3 -110 15 0 12 19 15 110 15 91 0 110 -3 110 -15z m168 5 c41 0 72 -4 72
-10 0 -6 -43 -10 -110 -10 -95 0 -110 2 -110 16 0 14 7 15 38 10 20 -3 70 -6
110 -6z m312 -10 c0 -6 -42 -10 -105 -10 -63 0 -105 4 -105 10 0 6 42 10 105
10 63 0 105 -4 105 -10z m230 -2 c0 -10 -27 -13 -103 -13 -76 0 -104 3 -104
13 0 9 28 12 104 12 76 0 103 -3 103 -12z m-2880 -21 c0 -15 -202 -17 -212 -2
-12 16 15 20 116 17 65 -2 96 -7 96 -15z m247 -3 c5 -16 -215 -10 -231 6 -8 8
22 10 108 8 78 -2 121 -7 123 -14z m243 1 c0 -12 -19 -15 -109 -15 -100 0
-131 6 -114 24 3 3 55 6 115 6 89 0 108 -3 108 -15z m484 -2 c5 -11 -34 -13
-231 -11 -183 2 -237 6 -241 16 -6 20 465 15 472 -5z m241 -3 c4 -6 -35 -10
-109 -10 -71 0 -116 4 -116 10 0 6 43 10 109 10 63 0 112 -4 116 -10z m245 -6
c0 -13 -15 -15 -112 -11 -73 2 -113 8 -116 15 -3 9 28 12 112 12 99 0 116 -2
116 -16z m237 1 c0 -14 -17 -16 -108 -14 -81 1 -109 5 -113 15 -4 11 15 14
108 14 95 0 113 -2 113 -15z m237 0 c5 -13 -11 -15 -105 -15 -64 0 -108 4
-105 9 4 5 0 12 -6 14 -7 3 37 6 98 6 91 1 113 -2 118 -14z m233 0 c-2 -6 -51
-11 -110 -13 -84 -2 -107 0 -107 11 0 10 25 13 110 12 69 0 109 -4 107 -10z
m243 -6 c0 -5 -48 -9 -110 -9 -81 0 -110 3 -110 13 0 9 27 11 110 9 60 -2 110
-7 110 -13z m240 2 c0 -5 -39 -11 -87 -13 -98 -3 -133 0 -133 13 0 5 50 9 110
9 61 0 110 -4 110 -9z m220 -8 c0 -15 -2 -16 -10 -3 -5 8 -10 11 -10 5 0 -6
-37 -10 -90 -10 -65 0 -90 3 -90 13 0 9 27 12 100 12 89 0 100 -2 100 -17z
m-2870 -18 c0 -13 -14 -16 -84 -14 -62 1 -86 5 -90 15 -4 11 12 14 84 14 74 0
90 -3 90 -15z m244 0 c5 -13 -11 -15 -109 -15 -96 0 -115 3 -115 15 0 12 19
15 109 15 88 0 110 -3 115 -15z m246 0 c0 -12 -19 -15 -113 -15 -94 0 -114 3
-114 15 0 12 20 15 114 15 94 0 113 -3 113 -15z m484 -6 c18 -16 -23 -21 -151
-15 -70 2 -172 5 -225 5 -82 1 -98 4 -98 17 0 13 26 14 233 8 127 -3 236 -10
241 -15z m246 -4 c0 -12 -19 -15 -115 -15 -96 0 -115 3 -115 15 0 12 19 15
115 15 96 0 115 -3 115 -15z m240 0 c0 -12 -19 -15 -115 -15 -96 0 -115 3
-115 15 0 12 19 15 115 15 96 0 115 -3 115 -15z m240 0 c0 -13 -17 -15 -112
-13 -78 2 -113 7 -116 16 -3 9 24 12 112 12 98 0 116 -2 116 -15z m230 0 c0
-12 -19 -15 -110 -15 -101 0 -122 5 -103 23 3 4 53 7 110 7 85 0 103 -3 103
-15z m240 -5 c0 -13 -17 -15 -110 -12 -60 2 -110 7 -110 12 0 13 14 15 120 15
82 0 100 -3 100 -15z m242 -5 c-4 -16 -222 -13 -222 3 0 10 26 12 113 10 68
-2 111 -7 109 -13z m238 0 c0 -13 -17 -15 -107 -13 -74 2 -108 7 -111 16 -3 9
23 12 107 12 92 0 111 -3 111 -15z m210 1 c-12 -12 -129 -21 -165 -12 -14 4
-25 11 -25 17 0 7 35 9 100 8 68 -2 97 -6 90 -13z m-1007 -539 c43 -28 58 -60
64 -140 l6 -74 -49 -7 c-114 -17 -265 -125 -326 -233 -16 -29 -34 -53 -38 -53
-4 0 -8 -10 -8 -22 0 -37 -8 -62 -20 -66 -7 -2 -10 -7 -8 -10 2 -4 -43 -7
-100 -7 -77 0 -104 3 -104 13 0 6 -4 12 -9 12 -6 0 -10 8 -10 18 -2 43 -6 60
-12 57 -3 -3 -17 16 -30 42 -35 67 -134 164 -204 198 -33 17 -62 33 -65 36 -3
3 -27 9 -55 13 -27 4 -65 10 -83 13 l-34 6 4 83 c3 86 10 101 63 132 15 9 148
11 505 9 445 -2 488 -3 513 -20z m-1008 -259 c9 -9 -51 -248 -63 -248 -4 0 -9
58 -10 128 l-4 128 36 -1 c20 -1 38 -4 41 -7z m1075 -115 l0 -118 -20 44 c-11
23 -17 47 -14 52 3 5 0 9 -5 9 -6 0 -11 5 -11 10 0 6 -9 30 -20 52 -21 44 -25
62 -12 54 4 -2 14 -1 22 5 8 5 25 9 38 9 22 0 22 -2 22 -117z m-972 87 l43
-19 -49 -78 c-27 -43 -55 -88 -63 -100 -8 -13 -20 -23 -27 -23 -8 0 -12 -6 -9
-12 5 -15 -10 -48 -22 -48 -5 0 -5 14 -1 33 5 17 21 85 36 150 15 64 32 117
38 117 6 0 30 -9 54 -20z m871 -57 c13 -32 33 -80 46 -108 42 -93 7 -82 -93
29 -39 44 -69 83 -66 88 5 8 74 47 85 48 3 0 16 -26 28 -57z m388 15 c-3 -8
-6 -5 -6 6 -1 11 2 17 5 13 3 -3 4 -12 1 -19z m-1697 -30 l0 -32 -21 21 c-22
22 -19 43 7 43 9 0 14 -11 14 -32z m560 -1 c16 -12 29 -26 29 -32 0 -14 -111
-102 -143 -115 -15 -5 -25 -14 -22 -19 3 -5 -5 -16 -18 -24 -21 -14 -23 -14
-22 1 1 9 7 26 13 37 19 33 46 78 78 133 32 56 38 57 85 19z m1202 3 c7 -11
17 -20 21 -20 5 0 15 -7 24 -15 16 -17 14 -19 -78 -88 -40 -29 -56 -24 -43 16
4 12 7 30 5 40 -3 19 38 87 51 87 4 0 13 -9 20 -20z m-543 -72 c28 -35 62 -75
76 -90 14 -15 25 -35 24 -45 0 -10 -3 -13 -6 -5 -2 6 -12 12 -21 12 -20 1 -55
25 -50 36 2 4 -4 8 -13 9 -33 5 -59 17 -59 26 0 5 -6 9 -12 9 -7 0 -26 9 -41
19 l-29 18 32 37 c18 20 36 36 40 36 5 0 31 -28 59 -62z m-1245 12 c29 -32 36
-48 36 -81 l0 -40 -62 36 c-35 19 -70 39 -77 44 -12 7 -10 15 13 45 15 20 33
36 40 36 8 0 30 -18 50 -40z m681 -47 l25 -38 -32 -8 c-18 -5 -41 -17 -51 -28
-16 -17 -44 -25 -70 -20 -5 1 -6 -3 -3 -8 7 -11 -82 -37 -92 -26 -9 9 68 76
80 69 5 -3 12 2 15 12 5 19 78 84 94 84 4 0 20 -17 34 -37z m1221 -13 c16 -24
23 -44 18 -49 -12 -11 -181 -71 -199 -71 -29 0 1 44 69 101 39 32 74 59 78 59
4 0 20 -18 34 -40z m-1918 -73 c47 -28 63 -53 46 -70 -3 -3 -26 1 -50 8 -25 7
-47 13 -49 14 -38 2 -97 15 -101 23 -3 5 2 30 11 54 l17 45 36 -22 c21 -11 61
-35 90 -52z m1162 46 c13 -12 13 -13 -5 -8 l-20 6 20 -9 c11 -5 34 -14 50 -19
18 -6 29 -15 27 -24 -2 -8 0 -11 3 -7 4 4 20 1 35 -7 34 -17 36 -45 3 -43 -12
1 -23 6 -23 10 0 4 -15 8 -34 8 -19 0 -47 5 -63 12 -15 6 -37 10 -48 9 -17 -2
-18 0 -5 9 12 10 11 11 -6 7 -24 -5 -27 19 -5 33 8 4 10 13 7 19 -20 32 31 36
64 4z m270 -38 c0 -8 -4 -15 -9 -15 -5 0 -11 7 -15 15 -3 9 0 15 9 15 8 0 15
-7 15 -15z m-684 -48 l1 -26 -91 2 c-50 0 -76 3 -58 5 17 2 32 8 32 13 0 6 5
7 11 4 6 -4 16 0 22 8 11 15 50 26 72 22 6 -1 10 -13 11 -28z m1233 -55 c1
-23 0 -23 -124 -21 -83 1 -125 5 -122 12 1 5 52 29 113 53 l109 43 12 -32 c6
-18 12 -42 12 -55z m-902 32 c-3 -3 -12 -4 -19 -1 -8 3 -5 6 6 6 11 1 17 -2
13 -5z m-1143 -26 c93 -21 122 -37 100 -58 -5 -4 -55 -11 -111 -15 l-103 -7 0
51 c0 28 3 51 8 51 4 0 51 -10 106 -22z m2051 -112 c-7 -33 -10 -36 -41 -36
-40 0 -173 35 -188 50 -5 5 -6 13 -2 17 10 10 218 20 229 12 5 -4 5 -23 2 -43z
m-1961 -11 c-5 -12 -25 -15 -89 -15 -158 0 -134 25 27 29 56 1 66 -2 62 -14z
m1345 -466 c77 -18 172 -102 170 -150 0 -8 -26 -26 -57 -41 -31 -15 -80 -48
-108 -72 -55 -48 -131 -153 -126 -173 2 -7 -1 -13 -7 -13 -5 0 -12 -21 -16
-47 l-6 -48 -294 0 c-162 -1 -291 3 -288 7 2 5 0 14 -5 21 -9 11 -25 61 -27
82 0 6 -8 19 -17 30 -9 11 -37 47 -61 80 -48 64 -175 156 -222 161 -63 7 -77
20 -50 48 8 8 15 19 15 24 0 12 45 53 62 55 7 2 33 13 56 25 41 21 53 22 210
18 92 -2 190 -1 217 3 76 9 504 2 554 -10z m-1079 -206 c0 -15 -83 -208 -92
-214 -5 -3 -9 -9 -9 -13 3 -19 0 -27 -8 -22 -5 4 -12 0 -15 -6 -3 -7 -3 25 0
71 3 60 11 98 29 137 23 50 27 54 60 54 19 0 35 -3 35 -7z m1290 -28 c6 -19
27 -66 45 -105 33 -66 38 -81 50 -147 l5 -28 -15 25 c-8 14 -14 34 -15 44 0
10 -6 24 -14 30 -16 12 -106 187 -106 205 0 6 9 11 19 11 13 0 23 -11 31 -35z
m-1240 1 c0 -15 27 -30 47 -27 28 4 23 -24 -11 -58 -53 -53 -105 -111 -106
-119 -1 -4 -17 -25 -35 -47 l-34 -39 12 34 c7 19 16 42 22 50 5 8 10 21 11 28
2 7 15 43 29 80 15 37 31 77 36 90 9 24 29 30 29 8z m1201 -88 c24 -51 43 -96
42 -100 -2 -4 2 -8 7 -8 6 0 10 -7 10 -15 0 -25 -30 -17 -40 10 -5 14 -18 28
-27 32 -23 7 -123 104 -123 118 0 11 59 53 76 54 7 1 31 -40 55 -91z m-1071
-8 c0 -10 7 -23 15 -30 12 -10 15 -10 15 1 0 11 2 11 9 -1 11 -15 4 -33 -8
-25 -5 2 -16 -4 -26 -15 -10 -11 -25 -20 -33 -20 -18 0 -102 -48 -102 -58 0
-10 -38 -33 -61 -37 -26 -5 -12 19 41 70 22 22 47 52 55 66 8 15 26 41 41 58
21 25 29 29 40 20 8 -6 14 -19 14 -29z m933 -2 c8 -13 27 -36 43 -52 16 -15
29 -32 29 -37 0 -5 4 -9 9 -8 7 0 36 -45 36 -57 0 -11 -29 -2 -34 11 -3 8 -11
12 -19 9 -7 -2 -29 6 -48 18 -19 13 -47 29 -62 36 -15 6 -26 16 -23 21 4 5 1
11 -5 13 -12 4 36 68 51 68 4 0 14 -10 23 -22z m-98 -98 c-3 -5 1 -10 10 -10
13 0 117 -52 134 -66 2 -2 -35 -4 -83 -4 -86 0 -87 0 -80 23 4 12 8 31 10 42
3 25 3 25 10 25 3 0 2 -4 -1 -10z m-735 -35 c6 -19 9 -39 5 -45 -7 -11 -195
-14 -195 -2 0 10 76 52 95 52 9 0 18 7 21 15 4 8 18 15 34 15 24 0 30 -6 40
-35z m-442 -5 c0 -16 -3 -30 -7 -30 -4 0 -8 14 -9 30 0 17 3 30 7 30 4 0 8
-13 9 -30z m1495 -20 c3 -11 1 -18 -4 -14 -5 3 -9 12 -9 20 0 20 7 17 13 -6z
m-1456 -12 c-3 -8 -6 -5 -6 6 -1 11 2 17 5 13 3 -3 4 -12 1 -19z m-592 2 c23
-9 25 -12 12 -25 -9 -8 -30 -16 -48 -17 -27 -3 -33 1 -40 25 -7 25 -5 27 21
27 16 0 41 -5 55 -10z m2765 -14 c0 -22 -4 -24 -50 -24 -41 0 -50 3 -50 18 0
22 13 28 63 29 33 1 37 -2 37 -23z m-2782 -68 c-5 -32 -48 -33 -48 -1 0 18 5
23 26 23 20 0 25 -4 22 -22z m2752 -8 c0 -14 -7 -20 -24 -20 -15 0 -26 7 -29
20 -4 17 0 20 24 20 22 0 29 -5 29 -20z"/>
<path d="M5242 929 c-59 -14 -126 -80 -142 -139 -9 -34 -9 -57 0 -97 16 -73
63 -113 175 -149 125 -40 158 -93 96 -155 -41 -40 -98 -40 -175 1 -32 17 -65
28 -74 26 -10 -3 -26 -22 -36 -41 -23 -42 -15 -55 58 -92 61 -31 172 -42 232
-23 108 35 169 141 145 252 -15 64 -68 109 -169 142 -98 33 -132 57 -132 95 0
70 99 98 183 52 52 -29 71 -24 94 23 14 30 14 37 2 52 -38 46 -171 73 -257 53z"/>
<path d="M600 596 l0 -336 65 0 65 0 0 125 0 125 40 0 c40 0 41 0 111 -107 99
-151 89 -143 176 -143 l74 0 -96 142 c-66 97 -93 144 -84 147 8 2 33 23 55 45
98 97 78 247 -41 306 -46 23 -64 25 -207 29 l-158 3 0 -336z m289 209 c34 -17
55 -64 46 -103 -12 -57 -74 -91 -167 -92 l-38 0 0 105 0 105 65 0 c38 0 78 -6
94 -15z"/>
<path d="M1170 707 c0 -257 9 -303 67 -368 61 -67 103 -84 213 -84 106 0 149
15 205 70 66 67 70 84 73 358 l3 247 -65 0 -66 0 0 -212 c0 -117 -5 -230 -10
-250 -6 -20 -26 -50 -46 -67 -65 -57 -179 -36 -221 41 -15 28 -18 65 -21 261
l-4 227 -64 0 -64 0 0 -223z"/>
<path d="M1860 595 l0 -335 65 0 65 0 0 145 0 145 155 0 155 0 0 -145 0 -145
65 0 65 0 0 335 0 335 -65 0 -65 0 0 -145 0 -145 -155 0 -155 0 0 145 0 145
-65 0 -65 0 0 -335z"/>
<path d="M2570 596 l0 -336 65 0 65 0 0 125 0 125 40 0 c40 0 41 0 111 -107
99 -151 89 -143 176 -143 l74 0 -96 142 c-66 97 -93 144 -84 147 8 2 33 23 55
45 98 97 78 247 -41 306 -46 23 -64 25 -207 29 l-158 3 0 -336z m289 209 c34
-17 55 -64 46 -103 -12 -57 -74 -91 -167 -92 l-38 0 0 105 0 105 65 0 c38 0
78 -6 94 -15z"/>
<path d="M3080 875 l0 -55 100 0 100 0 0 -280 0 -280 65 0 65 0 0 280 0 280
100 0 100 0 0 55 0 55 -265 0 -265 0 0 -55z"/>
<path d="M3690 596 l0 -336 65 0 65 0 0 125 0 125 40 0 c40 0 41 0 111 -107
99 -151 89 -143 176 -143 l74 0 -96 142 c-66 97 -93 144 -84 147 8 2 33 23 55
45 98 97 78 247 -41 306 -46 23 -64 25 -207 29 l-158 3 0 -336z m289 209 c34
-17 55 -64 46 -103 -12 -57 -74 -91 -167 -92 l-38 0 0 105 0 105 65 0 c38 0
78 -6 94 -15z"/>
<path d="M4280 595 l0 -335 65 0 65 0 0 335 0 335 -65 0 -65 0 0 -335z"/>
<path d="M4550 596 l0 -336 65 0 65 0 0 114 0 113 98 5 c172 8 252 78 252 218
0 71 -18 120 -57 156 -53 49 -86 57 -260 62 l-163 4 0 -336z m293 213 c65 -29
75 -130 17 -181 -27 -25 -38 -28 -105 -28 l-75 0 0 110 0 110 70 0 c38 0 80
-5 93 -11z"/>
</g>
</svg>
